<?xml version="1.0" encoding="UTF-8" standalone="no"?>
<svg width="43px" height="44px" viewBox="0 0 43 44" version="1.1" xmlns="http://www.w3.org/2000/svg" xmlns:xlink="http://www.w3.org/1999/xlink">
    <!-- Generator: Sketch 40.3 (33839) - http://www.bohemiancoding.com/sketch -->
    <title>Combined Shape</title>
    <desc>Created with Sketch.</desc>
    <defs></defs>
    <g id="Page-1" stroke="none" stroke-width="1" fill="none" fill-rule="evenodd">
        <path d="M38.3929029,22.1428359 L42.2433539,18.3760903 C42.7734885,17.8738576 42.9688012,17.1205084 42.8013903,16.422963 C42.6060776,15.7254175 42.0480412,15.1673811 41.3504957,14.9999702 L36.1049538,13.6606829 L37.5837502,8.47094456 C37.7790629,7.77339908 37.5837502,7.02004997 37.0536156,6.51781723 C36.5513829,5.98768267 35.7980337,5.79236994 35.1004883,5.98768267 L29.9107499,7.46647907 L28.5714626,2.22093711 C28.4040517,1.52339163 27.8460153,0.965355253 27.1484699,0.797944339 C26.4230226,0.602631606 25.6975753,0.797944339 25.1953425,1.3280789 L21.428597,5.20643174 L17.6618514,1.3280789 C17.1596187,0.797944339 16.4062696,0.602631606 15.7087241,0.797944339 C15.0111786,0.965355253 14.4531422,1.52339163 14.2857313,2.22093711 L12.946444,7.46647907 L7.75670568,5.98768267 C7.0591602,5.79236994 6.30581109,5.98768267 5.80357835,6.51781723 C5.27344379,7.02004997 5.07813105,7.77339908 5.27344379,8.47094456 L6.75224019,13.6606829 L1.50669822,14.9999702 C0.80915275,15.1673811 0.251116371,15.7254175 0.055803638,16.422963 C-0.111607276,17.1205084 0.0837054569,17.8738576 0.613840017,18.3760903 L4.46429104,22.1428359 L0.613840017,25.9095814 C0.0837054569,26.4118142 -0.111607276,27.1651633 0.055803638,27.8627087 C0.251116371,28.5602542 0.80915275,29.1182906 1.50669822,29.2857015 L6.75224019,30.6249888 L5.27344379,35.8147272 C5.07813105,36.5122726 5.27344379,37.2656217 5.80357835,37.7678545 C6.30581109,38.297989 7.0591602,38.4933018 7.75670568,38.297989 L12.946444,36.8191926 L14.2857313,42.0647346 C14.4531422,42.7622801 14.9832768,43.3203165 15.7087241,43.5156292 C16.4062696,43.6830401 17.1596187,43.4877274 17.6618514,42.9575928 L21.428597,39.1071418 L25.1953425,42.9575928 C25.5580662,43.3482183 26.0882007,43.5714328 26.6183353,43.5714328 C26.7857462,43.5714328 26.9810589,43.543531 27.1484699,43.5156292 C27.8460153,43.3203165 28.4040517,42.7622801 28.5714626,42.0647346 L29.9107499,36.8191926 L35.1004883,38.297989 C35.7980337,38.4933018 36.5513829,38.297989 37.0536156,37.7678545 C37.5837502,37.2656217 37.7790629,36.5122726 37.5837502,35.8147272 L36.1049538,30.6249888 L41.3504957,29.2857015 C42.0480412,29.1182906 42.6060776,28.5602542 42.8013903,27.8627087 C42.9688012,27.1651633 42.7734885,26.4118142 42.2433539,25.9095814 L38.3929029,22.1428359 Z M29.6495758,19.1740942 C29.6495758,18.895076 29.5379685,18.6160579 29.3370754,18.4151648 L27.8192165,16.8973058 C27.6183234,16.6964127 27.3393052,16.5848054 27.060287,16.5848054 C26.7812688,16.5848054 26.5022506,16.6964127 26.3013575,16.8973058 L18.9799202,24.2299038 L15.6986663,20.9374892 C15.4977732,20.7365961 15.218755,20.6249888 14.9397368,20.6249888 C14.6607186,20.6249888 14.3817005,20.7365961 14.1808074,20.9374892 L12.6629484,22.4553481 C12.4620553,22.6562412 12.350448,22.9352594 12.350448,23.2142776 C12.350448,23.4932958 12.4620553,23.772314 12.6629484,23.9732071 L16.7031318,28.0133905 L18.2209908,29.5312494 C18.4218838,29.7321425 18.700902,29.8437498 18.9799202,29.8437498 C19.2589384,29.8437498 19.5379566,29.7321425 19.7388497,29.5312494 L21.2567087,28.0133905 L29.3370754,19.9330237 C29.5379685,19.7321306 29.6495758,19.4531124 29.6495758,19.1740942 Z" id="Combined-Shape" fill="#2CB5FF"></path>
    </g>
</svg>